<?xml version="1.0" standalone="no"?>
<!DOCTYPE svg PUBLIC "-//W3C//DTD SVG 20010904//EN"
 "http://www.w3.org/TR/2001/REC-SVG-20010904/DTD/svg10.dtd">
<svg version="1.0" xmlns="http://www.w3.org/2000/svg"
 width="300.000000pt" height="150.000000pt" viewBox="0 0 300.000000 150.000000"
 preserveAspectRatio="xMidYMid meet">
<metadata>
Created by potrace 1.10, written by Peter Selinger 2001-2011
</metadata>
<g transform="translate(0.000000,150.000000) scale(0.100000,-0.100000)"
fill="#000000" stroke="none">
<path d="M1535 1490 c3 -5 8 -10 11 -10 2 0 4 5 4 10 0 6 -5 10 -11 10 -5 0
-7 -4 -4 -10z"/>
<path d="M1464 1465 c-14 -13 -30 -22 -35 -19 -5 3 -9 0 -9 -7 0 -7 -3 -10 -6
-6 -4 3 -22 -5 -40 -20 -19 -14 -34 -21 -34 -17 -1 5 -10 -2 -20 -15 -11 -13
-20 -20 -20 -16 0 5 -8 1 -18 -8 -10 -10 -22 -14 -26 -10 -4 4 -4 -1 0 -12 6
-16 4 -18 -6 -8 -10 10 -21 6 -50 -17 -21 -16 -40 -26 -44 -23 -4 4 -4 -1 0
-12 6 -16 5 -18 -6 -8 -11 10 -18 9 -36 -8 -12 -11 -28 -22 -35 -23 -35 -7
-69 -30 -64 -44 4 -11 2 -12 -7 -4 -17 13 -37 -1 -66 -49 -21 -35 -31 -109
-14 -109 4 0 6 19 4 43 -3 23 -1 39 2 36 3 -3 28 16 55 42 27 26 52 45 55 42
3 -4 6 -1 6 6 0 7 5 9 12 5 8 -5 9 -2 4 11 -5 15 -4 16 9 5 10 -8 15 -9 15 -1
0 6 6 11 14 11 7 0 19 7 26 15 7 8 16 12 21 10 4 -3 17 3 29 15 11 11 20 17
20 13 0 -3 8 1 18 10 10 10 21 15 24 12 2 -3 19 8 38 25 18 16 37 27 41 24 5
-3 9 0 9 6 0 6 4 9 9 5 5 -3 17 5 25 17 9 12 16 19 16 14 0 -5 7 -3 15 4 8 7
15 9 15 4 1 -5 10 2 20 15 11 13 20 20 20 16 0 -4 7 -2 15 5 8 7 12 17 8 24
-4 6 2 4 12 -4 17 -14 18 -13 12 2 -3 9 -1 19 6 22 9 3 9 5 0 5 -7 1 -24 -10
-39 -24z m-39 -44 c-9 -8 -36 -10 -30 -2 2 4 11 8 20 8 8 0 13 -3 10 -6z m-70
-40 c-9 -8 -36 -10 -30 -2 2 4 11 8 20 8 8 0 13 -3 10 -6z m-111 -59 c3 -5 -1
-9 -9 -9 -8 0 -12 4 -9 9 3 4 7 8 9 8 2 0 6 -4 9 -8z m-254 -157 c-7 -9 -15
-13 -18 -10 -3 2 1 11 8 20 7 9 15 13 18 10 3 -2 -1 -11 -8 -20z"/>
<path d="M1606 1466 c-14 -12 -22 -27 -18 -32 4 -4 -1 -2 -10 5 -12 9 -18 10
-18 2 0 -6 -6 -11 -13 -11 -7 0 -23 -9 -34 -19 -12 -11 -24 -17 -29 -13 -4 4
-4 -1 -1 -10 4 -11 2 -18 -5 -18 -6 0 -9 -3 -5 -6 10 -10 68 37 60 49 -4 7 2
5 12 -3 11 -9 16 -10 11 -2 -5 8 -1 12 13 12 11 0 24 7 29 17 9 15 13 14 43
-7 18 -13 34 -19 36 -14 2 6 20 -4 39 -23 20 -18 40 -31 45 -28 5 4 9 1 9 -5
0 -6 4 -9 9 -6 5 3 14 -1 21 -9 7 -8 16 -13 20 -10 4 3 11 -2 14 -11 3 -8 10
-12 16 -9 5 3 10 1 10 -6 0 -7 3 -9 7 -6 3 4 17 -3 30 -15 20 -19 25 -20 33
-8 9 13 10 13 11 0 1 -8 0 -19 -1 -25 -1 -5 2 -7 6 -3 4 4 20 -2 37 -14 17
-12 28 -17 24 -12 -3 6 0 11 7 11 7 0 13 -5 12 -11 0 -6 1 -11 4 -11 3 0 21
-11 40 -25 19 -14 38 -25 43 -25 11 0 37 -54 37 -77 0 -10 5 -16 10 -13 6 3
10 -3 10 -14 0 -10 -6 -22 -12 -24 -8 -3 -6 -6 5 -6 13 -1 17 7 17 34 0 19 -4
35 -10 35 -5 0 -7 7 -4 15 4 8 1 15 -6 15 -6 0 -9 3 -6 8 5 9 -19 43 -31 44
-4 0 -7 4 -5 10 1 5 -2 7 -7 4 -5 -4 -12 -2 -16 4 -4 6 -10 8 -15 5 -4 -3 -11
2 -14 11 -4 9 -9 14 -13 11 -3 -4 -11 0 -17 7 -6 8 -20 16 -30 18 -11 2 -31
13 -44 26 -14 12 -27 20 -30 17 -3 -3 -20 6 -37 20 -18 13 -35 21 -39 18 -3
-4 -6 -1 -6 6 0 7 -4 10 -9 7 -5 -3 -14 1 -21 9 -7 8 -16 12 -21 9 -5 -3 -9
-1 -9 5 0 6 -9 15 -20 21 -17 9 -19 8 -13 -7 4 -10 -9 -2 -29 18 -19 20 -42
36 -49 36 -39 1 -74 23 -56 35 6 4 17 2 24 -4 8 -6 15 -9 18 -7 2 3 -5 10 -15
17 -16 10 -23 8 -44 -12z"/>
<path d="M1745 1470 c-3 -5 -13 -7 -23 -4 -9 3 0 -4 22 -15 21 -11 44 -25 50
-31 7 -5 16 -7 19 -3 4 3 7 0 7 -7 0 -7 3 -11 6 -7 4 3 23 -6 42 -21 20 -15
33 -22 29 -16 -3 6 0 11 7 11 9 0 12 -7 8 -16 -3 -9 -1 -13 3 -8 5 4 17 0 27
-10 10 -9 18 -12 18 -8 0 5 6 1 13 -9 7 -9 20 -18 29 -19 9 -2 23 -9 32 -16 9
-7 16 -10 16 -5 0 5 4 3 9 -5 5 -8 17 -16 26 -17 10 -1 29 -13 43 -26 14 -13
22 -18 19 -12 -3 6 0 11 7 11 8 0 12 -6 9 -13 -2 -7 18 -23 51 -38 31 -15 56
-33 56 -42 0 -8 6 -17 13 -19 8 -4 11 -21 9 -50 -3 -36 -1 -45 12 -45 12 0 16
9 15 38 l-2 37 -8 -35 c-7 -32 -7 -31 -6 15 2 40 -1 49 -13 47 -12 -3 -13 -1
-3 9 10 10 9 17 -9 36 -17 19 -24 21 -37 11 -9 -7 -13 -8 -9 -4 10 11 -11 38
-23 30 -5 -3 -9 0 -9 7 0 8 -4 8 -15 -1 -13 -11 -14 -10 -10 2 4 11 -6 22 -34
37 -23 11 -41 17 -41 13 0 -4 -5 0 -10 8 -8 12 -10 12 -10 1 0 -8 -9 -2 -21
13 -11 14 -29 26 -40 26 -14 0 -18 4 -13 13 5 8 2 7 -9 -2 -16 -12 -17 -12
-11 5 4 10 3 16 -1 11 -5 -4 -17 0 -27 10 -10 9 -18 12 -18 8 0 -5 -6 -1 -13
9 -7 9 -20 18 -29 19 -9 2 -23 9 -32 16 -9 7 -16 10 -16 5 0 -4 -7 1 -15 12
-8 10 -15 15 -15 10 0 -4 -15 3 -34 18 -19 14 -37 22 -41 16z m536 -307 c13
-16 12 -17 -3 -4 -17 13 -22 21 -14 21 2 0 10 -8 17 -17z"/>
<path d="M1568 1463 c7 -3 16 -2 19 1 4 3 -2 6 -13 5 -11 0 -14 -3 -6 -6z"/>
<path d="M1437 1369 c-15 -12 -24 -26 -20 -32 4 -8 2 -8 -9 1 -12 10 -23 7
-59 -20 -24 -18 -51 -34 -59 -36 -8 -2 -24 -12 -36 -23 -11 -10 -24 -16 -27
-12 -4 3 -7 0 -7 -7 0 -7 -3 -10 -6 -7 -4 4 -21 -4 -38 -16 -17 -12 -34 -22
-37 -22 -4 0 -19 -12 -34 -27 -15 -16 -25 -28 -21 -28 4 0 0 -7 -8 -16 -9 -9
-16 -32 -16 -55 0 -31 4 -39 18 -39 10 0 13 3 6 8 -17 11 -14 71 3 65 8 -3 13
-1 11 4 -2 5 9 24 25 42 15 18 27 30 27 26 0 -3 14 3 30 15 17 12 30 18 30 13
1 -4 10 3 20 16 11 13 20 20 20 16 0 -4 7 -2 15 5 8 7 12 17 8 24 -4 6 1 5 10
-3 12 -9 17 -10 17 -2 0 7 4 10 9 6 5 -3 17 5 25 17 9 12 16 19 16 14 0 -5 9
-1 20 9 11 10 20 15 20 11 0 -14 39 15 60 44 25 35 24 36 -13 9z m-207 -145
c0 -8 -19 -13 -24 -6 -3 5 1 9 9 9 8 0 15 -2 15 -3z m-100 -54 c-6 -11 -13
-20 -16 -20 -2 0 0 9 6 20 6 11 13 20 16 20 2 0 0 -9 -6 -20z"/>
<path d="M1040 811 c0 -134 1 -141 20 -141 18 0 20 6 18 73 l-2 72 -3 -67 c-7
-120 -23 -75 -23 62 0 80 4 130 10 130 6 0 10 -20 10 -45 0 -25 4 -45 8 -45 4
0 5 21 2 47 -4 35 -10 49 -22 51 -16 3 -18 -9 -18 -137z"/>
<path d="M1815 938 c-3 -8 -4 -70 -3 -139 3 -121 4 -124 26 -125 18 -1 19 -1
2 3 -19 4 -20 12 -20 134 0 108 2 129 15 129 11 0 15 -11 15 -39 0 -22 4 -42
8 -45 4 -2 5 16 2 42 -4 34 -10 48 -23 50 -9 2 -19 -3 -22 -10z"/>
<path d="M905 923 c33 -2 64 -8 69 -14 6 -5 14 -9 20 -9 5 0 1 7 -10 15 -12 9
-40 14 -79 13 l-60 -2 60 -3z"/>
<path d="M1390 891 c0 -10 -7 -21 -15 -25 -8 -3 -15 -12 -15 -21 0 -8 7 -15
15 -15 12 0 15 -15 17 -67 l2 -68 3 65 c3 53 1 67 -14 78 -17 12 -17 14 0 23
9 6 17 17 17 24 0 8 7 15 15 15 8 0 15 -9 15 -19 0 -11 6 -22 13 -25 10 -5 10
-7 0 -12 -9 -4 -12 -27 -11 -72 l2 -67 3 60 c2 33 9 63 15 66 18 11 -19 79
-42 79 -13 0 -20 -7 -20 -19z"/>
<path d="M915 893 c17 -2 36 -12 43 -21 6 -8 12 -11 12 -6 0 19 -24 34 -54 33
l-31 -2 30 -4z"/>
<path d="M1002 845 c0 -16 2 -22 5 -12 2 9 2 23 0 30 -3 6 -5 -1 -5 -18z"/>
<path d="M1115 863 c39 -10 45 -23 45 -104 0 -46 -4 -79 -10 -79 -6 0 -10 29
-10 68 0 65 -10 92 -34 92 -6 0 -3 -5 7 -11 14 -8 17 -24 17 -84 0 -68 2 -75
20 -75 18 0 20 7 20 83 0 90 -14 118 -56 116 -18 -1 -18 -2 1 -6z"/>
<path d="M1263 863 c9 -2 23 -2 30 0 6 3 -1 5 -18 5 -16 0 -22 -2 -12 -5z"/>
<path d="M1538 863 c6 -2 18 -2 25 0 6 3 1 5 -13 5 -14 0 -19 -2 -12 -5z"/>
<path d="M1700 866 c0 -2 13 -6 29 -8 17 -2 28 -1 25 4 -5 8 -54 12 -54 4z"/>
<path d="M1904 860 c16 -5 33 -15 37 -22 7 -10 9 -10 9 -1 0 15 -32 33 -57 32
-10 0 -6 -4 11 -9z"/>
<path d="M2023 862 c-7 -5 4 -8 26 -7 22 0 37 3 34 8 -6 9 -45 9 -60 -1z"/>
<path d="M2154 857 c-3 -8 -4 -52 -2 -98 3 -76 5 -84 23 -84 18 0 20 7 21 68
l0 67 -3 -65 c-3 -49 -8 -65 -18 -65 -12 0 -15 18 -15 91 0 86 1 91 20 86 11
-3 18 -1 14 4 -8 14 -34 11 -40 -4z"/>
<path d="M2218 863 c7 -3 16 -2 19 1 4 3 -2 6 -13 5 -11 0 -14 -3 -6 -6z"/>
<path d="M2313 863 c9 -2 23 -2 30 0 6 3 -1 5 -18 5 -16 0 -22 -2 -12 -5z"/>
<path d="M1214 835 c-9 -14 -15 -27 -13 -30 3 -2 12 10 21 26 21 36 15 39 -8
4z"/>
<path d="M1665 836 c-19 -29 -8 -58 28 -77 18 -10 17 -7 -5 14 -32 30 -33 35
-12 65 8 12 13 22 10 22 -3 0 -13 -11 -21 -24z"/>
<path d="M2264 835 c-9 -14 -15 -27 -13 -30 3 -2 12 10 21 26 21 36 15 39 -8
4z"/>
<path d="M2374 840 c9 -13 16 -37 16 -52 0 -27 -2 -28 -50 -28 -46 0 -50 -2
-49 -22 1 -17 3 -18 6 -6 3 12 17 18 51 20 44 3 47 5 50 34 2 20 -4 39 -18 55
l-22 24 16 -25z"/>
<path d="M1775 833 c4 -15 1 -23 -12 -26 -16 -4 -16 -5 -1 -6 23 -1 31 15 18
36 -10 16 -10 15 -5 -4z"/>
<path d="M961 824 c0 -11 3 -14 6 -6 3 7 2 16 -1 19 -3 4 -6 -2 -5 -13z"/>
<path d="M1255 830 c-4 -6 1 -7 11 -3 11 4 22 -1 30 -12 8 -10 14 -14 14 -9 0
26 -42 44 -55 24z"/>
<path d="M1336 827 c3 -10 9 -15 12 -12 3 3 0 11 -7 18 -10 9 -11 8 -5 -6z"/>
<path d="M1480 811 c-6 -16 -10 -38 -7 -48 4 -14 5 -13 6 5 0 13 6 32 12 44 6
11 9 22 6 24 -2 3 -10 -9 -17 -25z"/>
<path d="M1527 822 c-21 -23 -22 -82 -1 -108 14 -18 15 -18 4 4 -28 57 12 143
46 98 8 -11 14 -15 14 -10 0 14 -21 34 -35 34 -7 0 -19 -8 -28 -18z"/>
<path d="M1611 819 c6 -12 9 -40 7 -64 -1 -24 0 -41 5 -38 17 10 4 123 -15
123 -5 0 -4 -9 3 -21z"/>
<path d="M1710 836 c0 -2 9 -6 20 -9 11 -3 18 -1 14 4 -5 9 -34 13 -34 5z"/>
<path d="M1862 828 c-7 -7 -11 -37 -10 -77 l2 -66 5 70 c5 54 10 71 23 73 9 2
19 -5 22 -15 4 -15 5 -15 3 2 -3 23 -27 31 -45 13z"/>
<path d="M2027 823 c-15 -16 -19 -16 -27 -3 -8 13 -10 12 -10 -2 0 -22 23 -23
40 -3 7 8 19 15 26 15 20 0 17 -28 -3 -33 -13 -3 -12 -5 5 -6 19 -1 23 3 20
21 -4 29 -28 34 -51 11z"/>
<path d="M2307 833 c-3 -5 5 -8 18 -8 13 0 21 3 18 8 -2 4 -10 7 -18 7 -8 0
-16 -3 -18 -7z"/>
<path d="M2110 749 c0 -62 -2 -70 -16 -65 -9 4 -23 1 -30 -5 -8 -6 -26 -9 -41
-5 -26 5 -26 5 -6 -6 12 -6 30 -7 40 -3 10 4 28 7 41 6 21 -2 22 1 22 73 0 42
-2 76 -5 76 -3 0 -5 -32 -5 -71z"/>
<path d="M1243 765 c0 -27 2 -38 4 -22 2 15 2 37 0 50 -2 12 -4 0 -4 -28z"/>
<path d="M2290 799 c0 -5 11 -9 25 -9 14 0 25 2 25 4 0 2 -11 6 -25 8 -14 3
-25 1 -25 -3z"/>
<path d="M966 785 c-11 -8 -15 -15 -10 -15 6 0 19 7 30 15 10 8 15 14 9 14 -5
0 -19 -6 -29 -14z"/>
<path d="M1710 790 c8 -5 20 -10 25 -10 6 0 3 5 -5 10 -8 5 -19 10 -25 10 -5
0 -3 -5 5 -10z"/>
<path d="M1312 770 c0 -14 2 -19 5 -12 2 6 2 18 0 25 -3 6 -5 1 -5 -13z"/>
<path d="M1592 765 c0 -16 2 -22 5 -12 2 9 2 23 0 30 -3 6 -5 -1 -5 -18z"/>
<path d="M2005 780 c-3 -6 1 -7 9 -4 18 7 21 14 7 14 -6 0 -13 -4 -16 -10z"/>
<path d="M1762 765 c9 -11 18 -31 21 -45 l4 -25 2 26 c0 16 -8 33 -21 45 -23
19 -23 19 -6 -1z"/>
<path d="M903 763 c9 -2 23 -2 30 0 6 3 -1 5 -18 5 -16 0 -22 -2 -12 -5z"/>
<path d="M2053 753 c18 -5 24 -38 7 -46 -6 -3 -5 -4 2 -3 7 1 14 15 16 29 3
23 0 27 -20 26 -17 -1 -18 -3 -5 -6z"/>
<path d="M2020 725 c0 -14 4 -25 9 -25 4 0 6 11 3 25 -2 14 -6 25 -8 25 -2 0
-4 -11 -4 -25z"/>
<path d="M1201 729 c-1 -15 33 -59 46 -59 4 0 -3 10 -14 23 -11 12 -23 29 -26
37 -5 13 -6 13 -6 -1z"/>
<path d="M1297 721 c-4 -17 -3 -21 5 -13 5 5 8 16 6 23 -3 8 -7 3 -11 -10z"/>
<path d="M1480 726 c0 -8 4 -17 9 -20 5 -4 7 3 4 14 -6 23 -13 26 -13 6z"/>
<path d="M1653 723 c-8 -21 40 -63 70 -62 18 1 17 2 -6 9 -35 11 -57 28 -57
46 0 19 20 17 37 -3 13 -16 13 -16 3 5 -13 26 -38 29 -47 5z"/>
<path d="M1981 724 c0 -11 3 -14 6 -6 3 7 2 16 -1 19 -3 4 -6 -2 -5 -13z"/>
<path d="M2251 728 c-1 -20 33 -58 51 -58 7 0 2 7 -10 16 -13 9 -27 26 -32 38
-7 17 -9 17 -9 4z"/>
<path d="M1577 723 c-4 -3 -7 -11 -7 -17 0 -6 5 -5 12 2 6 6 9 14 7 17 -3 3
-9 2 -12 -2z"/>
<path d="M2355 710 c-3 -6 1 -7 9 -4 22 8 20 -12 -1 -26 -17 -11 -17 -11 0 -6
10 3 21 6 23 6 2 0 4 9 4 20 0 21 -24 28 -35 10z"/>
<path d="M1310 686 c-6 -8 -21 -17 -33 -19 -20 -4 -20 -4 -2 -5 11 -1 31 7 45
18 14 11 20 20 14 20 -6 0 -17 -6 -24 -14z"/>
<path d="M1450 687 c0 -20 -20 -22 -40 -4 -12 10 -12 9 -1 -5 7 -10 20 -18 28
-18 15 0 29 27 19 37 -3 4 -6 -1 -6 -10z"/>
<path d="M1589 683 c-13 -16 -12 -17 4 -4 16 13 21 21 13 21 -2 0 -10 -8 -17
-17z"/>
<path d="M1514 676 c11 -9 29 -16 40 -15 17 1 16 2 -6 9 -14 4 -32 11 -40 15
-7 3 -4 -1 6 -9z"/>
<path d="M1755 680 c-3 -6 1 -7 9 -4 18 7 21 14 7 14 -6 0 -13 -4 -16 -10z"/>
<path d="M858 673 c6 -2 18 -2 25 0 6 3 1 5 -13 5 -14 0 -19 -2 -12 -5z"/>
<path d="M1918 673 c6 -2 18 -2 25 0 6 3 1 5 -13 5 -14 0 -19 -2 -12 -5z"/>
<path d="M927 583 c-11 -10 -8 -103 3 -103 5 0 7 -6 4 -13 -3 -8 2 -20 10 -27
9 -7 14 -16 11 -20 -3 -5 0 -12 6 -16 8 -4 9 -3 5 4 -4 7 -2 12 3 12 6 0 11
-6 11 -14 0 -13 17 -25 33 -22 5 0 13 -7 19 -17 8 -14 13 -16 24 -6 12 9 13 9
9 -3 -4 -9 4 -20 22 -28 15 -8 31 -16 34 -18 4 -1 9 5 13 14 5 14 4 15 -9 4
-13 -11 -14 -10 -9 4 5 14 0 18 -22 15 -3 0 -11 7 -18 16 -6 9 -19 17 -28 18
-9 2 -23 9 -32 16 -9 7 -16 11 -16 7 0 -3 -8 2 -18 12 -11 9 -17 20 -15 24 2
4 -1 9 -7 13 -5 3 -10 15 -10 26 0 11 -4 17 -10 14 -6 -4 -10 11 -10 39 0 26
5 46 13 49 6 3 7 6 1 6 -6 1 -14 -2 -17 -6z"/>
<path d="M1064 577 c-3 -8 -4 -34 -1 -58 3 -44 4 -43 5 9 1 28 7 52 12 52 13
0 13 -93 0 -106 -12 -12 -2 -47 11 -38 8 5 13 -10 10 -29 -1 -5 3 -6 7 -3 5 3
17 -3 27 -14 10 -11 21 -17 25 -15 4 3 11 -2 14 -11 4 -9 9 -14 13 -11 3 4 13
1 21 -5 12 -10 14 -9 10 7 -2 11 -10 19 -16 18 -7 -2 -12 2 -12 9 0 6 -3 8 -6
5 -4 -4 -24 9 -46 28 -21 19 -43 35 -48 35 -6 0 -10 5 -10 11 0 5 5 7 11 4 7
-5 9 14 7 56 -3 60 -21 90 -34 56z"/>
<path d="M2158 583 c7 -3 12 -25 12 -59 0 -34 -4 -53 -10 -49 -5 3 -10 2 -10
-4 0 -12 -47 -61 -59 -61 -5 0 -14 -7 -21 -15 -7 -8 -16 -12 -21 -10 -4 3 -23
-8 -42 -25 -19 -16 -37 -27 -41 -23 -3 3 -6 0 -6 -7 0 -7 -3 -10 -6 -7 -4 4
-21 -4 -38 -16 -17 -12 -35 -22 -39 -22 -4 0 -11 -6 -16 -13 -5 -8 -11 -13
-15 -13 -22 3 -27 -1 -22 -15 6 -15 4 -15 -11 -3 -13 11 -15 11 -9 1 5 -9 3
-12 -5 -11 -20 4 -80 -34 -75 -47 2 -6 -2 -11 -10 -11 -7 0 -10 5 -6 11 3 6
-5 3 -18 -7 -14 -9 -35 -24 -47 -33 -21 -15 -24 -14 -59 15 -21 16 -41 28 -46
25 -4 -3 -8 0 -8 7 0 7 -3 9 -7 6 -3 -4 -15 0 -25 10 -10 9 -18 12 -18 8 0 -5
-7 0 -16 11 -8 10 -13 14 -10 8 3 -6 -1 -11 -8 -11 -9 0 -12 7 -8 16 3 9 2 13
-3 9 -4 -4 -21 4 -37 17 -16 14 -35 25 -42 25 -8 0 -25 9 -40 21 -14 11 -26
17 -26 13 0 -4 -7 1 -15 12 -8 10 -15 15 -15 10 0 -5 -7 -2 -16 5 -14 12 -16
11 -12 -6 2 -11 10 -19 16 -18 7 2 12 -2 12 -9 0 -6 3 -8 6 -5 4 3 23 -7 42
-23 29 -24 39 -27 51 -17 12 10 14 9 8 -6 -4 -11 -3 -16 3 -12 6 3 10 1 10 -5
0 -6 5 -8 10 -5 6 3 10 1 10 -6 0 -7 3 -9 7 -6 3 4 11 0 17 -9 6 -8 18 -16 27
-17 8 -2 28 -12 43 -24 15 -12 36 -20 46 -18 12 2 20 -2 20 -10 0 -7 10 -15
22 -17 12 -2 23 -9 26 -16 2 -7 -2 -10 -12 -6 -9 3 -16 2 -16 -3 0 -5 -15 -10
-32 -11 -22 -1 -28 1 -20 7 11 6 9 10 -7 14 -12 3 -19 2 -16 -2 2 -4 -2 -8 -9
-8 -8 0 -12 6 -9 13 3 8 -9 19 -30 27 -19 8 -38 20 -41 26 -4 5 -14 7 -23 4
-12 -5 -14 -3 -8 8 7 11 5 11 -10 -1 -10 -8 -16 -10 -12 -4 4 7 0 17 -8 24 -8
7 -15 9 -15 4 0 -4 -6 0 -13 10 -7 9 -20 18 -29 19 -9 2 -23 9 -32 16 -9 7
-16 10 -16 5 0 -5 -4 -3 -9 5 -5 8 -17 16 -26 17 -10 1 -27 12 -39 23 -13 12
-26 18 -29 14 -9 -9 22 -43 40 -43 7 0 13 -5 13 -11 0 -8 5 -7 15 1 13 11 14
10 9 -6 -4 -10 -4 -16 1 -12 4 4 21 -4 37 -17 16 -14 34 -23 39 -19 5 3 9 0 9
-6 0 -6 4 -9 9 -6 4 3 16 -3 26 -14 10 -11 27 -20 37 -20 13 0 17 -4 12 -13
-5 -7 0 -6 11 3 10 8 16 10 12 4 -8 -13 16 -37 26 -27 4 3 7 1 7 -7 0 -9 3
-10 14 -1 11 9 14 8 12 -6 -2 -28 87 -43 125 -21 20 12 29 13 33 5 2 -7 5 -4
5 6 1 9 7 17 15 17 7 0 19 7 26 15 7 8 21 15 32 15 10 0 21 7 24 15 4 8 10 13
14 10 4 -3 13 2 20 10 7 8 17 12 23 8 6 -3 7 -1 3 5 -5 8 0 12 14 12 11 0 23
7 26 15 4 8 10 12 15 9 5 -3 9 0 9 6 0 6 5 8 10 5 6 -3 10 -1 10 6 0 7 3 9 6
6 4 -4 21 4 38 16 17 12 35 22 39 22 4 0 12 7 17 15 5 8 10 11 10 6 0 -5 9 -1
20 9 11 10 17 23 13 29 -4 6 1 5 10 -3 11 -9 17 -10 17 -2 0 6 3 10 8 9 8 -3
59 29 80 49 11 11 11 13 0 13 -7 0 -4 6 7 12 30 17 35 28 35 91 0 48 -3 57
-17 56 -11 0 -13 -3 -5 -6z m-847 -280 c13 -16 12 -17 -3 -4 -17 13 -22 21
-14 21 2 0 10 -8 17 -17z"/>
<path d="M2308 548 c5 -71 10 -77 11 -15 0 31 -2 57 -7 57 -4 0 -6 -19 -4 -42z"/>
<path d="M2289 480 c-1 -8 -1 -21 0 -29 2 -7 -2 -10 -8 -7 -5 4 -16 -2 -23
-12 -7 -10 -30 -26 -50 -35 -21 -10 -38 -22 -38 -28 0 -6 -4 -8 -9 -4 -10 6
-24 -11 -27 -34 -2 -8 6 -5 20 8 12 12 26 18 31 14 4 -5 6 -1 3 8 -4 9 -1 16
8 16 7 0 11 -4 7 -9 -3 -5 11 1 31 14 20 13 34 28 31 35 -2 7 2 10 10 7 19 -8
39 32 26 54 -8 14 -11 14 -12 2z"/>
<path d="M2110 341 c0 -6 -6 -11 -13 -11 -7 0 -20 -9 -30 -20 -10 -12 -22 -18
-27 -15 -6 3 -10 1 -10 -4 0 -6 -3 -10 -7 -9 -16 3 -64 -26 -59 -37 2 -6 -2
-12 -10 -12 -7 0 -11 5 -8 11 3 6 -1 2 -10 -8 -8 -10 -12 -24 -9 -29 5 -8 8
-7 11 1 2 7 10 12 18 12 8 0 17 7 20 15 4 8 10 12 15 9 5 -3 9 0 9 6 0 6 5 8
10 5 6 -3 10 -1 10 4 0 6 3 10 8 9 15 -3 63 26 58 37 -2 6 2 12 10 12 7 0 11
-4 8 -9 -3 -4 -3 -8 0 -8 12 0 26 39 16 45 -5 3 -10 1 -10 -4z"/>
<path d="M1895 210 c-10 -11 -22 -17 -28 -13 -6 4 -8 0 -5 -9 4 -8 0 -15 -8
-15 -7 0 -10 5 -7 11 4 5 -7 1 -23 -10 -16 -12 -37 -24 -46 -27 -12 -4 -15
-12 -11 -24 6 -15 4 -16 -9 -5 -13 10 -18 10 -29 0 -8 -7 -27 -14 -44 -16 -23
-2 -27 -1 -15 7 9 7 10 11 3 11 -6 0 -15 -5 -18 -10 -10 -17 24 -23 74 -14 35
7 46 13 45 27 -2 14 1 15 12 6 8 -6 14 -7 14 -3 0 5 18 17 40 27 22 9 40 22
40 28 0 5 4 8 9 4 10 -6 24 11 27 33 3 16 0 15 -21 -8z"/>
<path d="M2376 83 c-6 -14 -5 -15 5 -6 7 7 10 15 7 18 -3 3 -9 -2 -12 -12z"/>
<path d="M2776 83 c-6 -14 -5 -15 5 -6 7 7 10 15 7 18 -3 3 -9 -2 -12 -12z"/>
</g>
</svg>
